<?xml version="1.0" encoding="UTF-8" standalone="no"?>
<svg
   viewBox="0 0 67.195755 41.670827"
   version="1.1"
   id="svg1008"
   sodipodi:docname="kumuluz-logo.svg"
   width="67.195755"
   height="41.670826"
   inkscape:version="1.1.1 (3bf5ae0d25, 2021-09-20)"
   xmlns:inkscape="http://www.inkscape.org/namespaces/inkscape"
   xmlns:sodipodi="http://sodipodi.sourceforge.net/DTD/sodipodi-0.dtd"
   xmlns="http://www.w3.org/2000/svg"
   xmlns:svg="http://www.w3.org/2000/svg">
  <sodipodi:namedview
     id="namedview1010"
     pagecolor="#ffffff"
     bordercolor="#666666"
     borderopacity="1.0"
     inkscape:pageshadow="2"
     inkscape:pageopacity="0.0"
     inkscape:pagecheckerboard="0"
     showgrid="false"
     inkscape:zoom="4.7125204"
     inkscape:cx="57.824683"
     inkscape:cy="3.9257125"
     inkscape:window-width="1920"
     inkscape:window-height="1017"
     inkscape:window-x="1912"
     inkscape:window-y="-8"
     inkscape:window-maximized="1"
     inkscape:current-layer="Layer_1-2" />
  <defs
     id="defs986">
    <style
       id="style984">.cls-1{fill:#254a99;}</style>
  </defs>
  <title
     id="title988">Asset 1</title>
  <g
     id="Layer_2"
     data-name="Layer 2"
     transform="translate(0.02563336,-0.02516272)">
    <g
       id="Layer_1-2"
       data-name="Layer 1">
      <path
         class="cls-1"
         d="M 65.07,19 C 62.63,15 58.45,12.57 53.2,12.25 A 10.55,10.55 0 0 0 48.28,6.32 11.58,11.58 0 0 0 40.05,5.27 16,16 0 0 0 30.66,0.27 20.31,20.31 0 0 0 19.08,1.86 c -7,3.19 -11,9.38 -10.46,16.15 A 11.79,11.79 0 0 0 0,30.15 c 0.3,5.42 4.1,11.12 10.8,11.52 h 10.71 2.08 a 2.23,2.23 0 0 0 2.24,-2.23 v -8.55 l 8.17,10 a 2.06,2.06 0 0 0 1.58,0.75 h 0.09 a 2,2 0 0 0 1.58,-3.33 L 31,30.69 l 5.61,-6 a 2,2 0 0 0 -1.49,-3.43 v 0 A 2,2 0 0 0 33.64,21.9 L 25.8,30.23 V 13.49 a 2,2 0 0 0 -2,-2 h -0.24 a 2,2 0 0 0 -2,2 V 37.36 H 11 C 6.87,37.08 4.52,33.42 4.34,29.93 4.16,26.6 5.92,22.71 11.39,21.81 v 0 a 2.16,2.16 0 0 0 1.76,-2.58 v 0 C 11.76,12.53 16.22,7.9 20.86,5.8 26.16,3.41 33.39,3.49 37.59,9.07 v 0 a 2.17,2.17 0 0 0 2.53,0.71 v 0 a 7.33,7.33 0 0 1 6.08,0.33 6.51,6.51 0 0 1 3.21,4.68 v 0 a 2.17,2.17 0 0 0 2.17,1.76 v 0 c 5.68,-0.13 8.45,2.49 9.78,4.71 a 11.44,11.44 0 0 1 0,11.18 9.69,9.69 0 0 1 -8.84,4.92 H 43 a 2.26,2.26 0 0 0 -2.28,1.94 2.17,2.17 0 0 0 2.16,2.39 h 9.64 A 14,14 0 0 0 65.12,34.58 15.66,15.66 0 0 0 65.07,19 Z"
         id="path1004" />
    </g>
  </g>
</svg>
