<svg width="240" height="49" viewBox="0 0 240 49" fill="none" xmlns="http://www.w3.org/2000/svg">
<path d="M88.5734 48.0299C87.0291 48.0299 85.8892 47.6301 85.1538 46.8303C84.4276 46.0306 84.0645 44.785 84.0645 43.0936C84.0645 39.8211 85.5858 38.1848 88.6285 38.1848C89.079 38.1848 89.534 38.2354 89.9936 38.3365C90.4532 38.4284 90.8118 38.5479 91.0691 38.695C91.299 38.8237 91.4139 38.9616 91.4139 39.1087C91.4139 39.219 91.3679 39.366 91.276 39.5499C91.1932 39.7246 91.0921 39.8808 90.9726 40.0187C90.8623 40.1566 90.7612 40.2255 90.6693 40.2255C90.6417 40.2255 90.5314 40.1796 90.3383 40.0877C90.1453 39.9957 89.9017 39.913 89.6075 39.8395C89.3226 39.7659 88.987 39.7291 88.601 39.7291C87.6909 39.7291 87.0153 40.0049 86.574 40.5565C86.142 41.108 85.926 41.9583 85.926 43.1074C85.926 44.2381 86.142 45.0838 86.574 45.6445C87.0153 46.2052 87.6817 46.4856 88.5734 46.4856C88.9962 46.4856 89.3639 46.4396 89.6765 46.3477C89.989 46.2558 90.2878 46.1409 90.5728 46.003C90.7198 45.9295 90.8209 45.8927 90.8761 45.8927C90.9772 45.8927 91.0783 45.9616 91.1795 46.0995C91.2898 46.2282 91.3817 46.3799 91.4552 46.5546C91.5288 46.7292 91.5655 46.8533 91.5655 46.9268C91.5655 47.1383 91.4093 47.3313 91.0967 47.506C90.8026 47.6714 90.4211 47.8001 89.9523 47.8921C89.4834 47.984 89.0238 48.0299 88.5734 48.0299Z" fill="#A969AA"/>
<path d="M95.125 47.961C94.6378 47.961 94.3942 47.8277 94.3942 47.5611V38.7915C94.3942 38.6169 94.4309 38.4882 94.5045 38.4054C94.5872 38.3227 94.7159 38.2813 94.8906 38.2813H97.4553C98.6043 38.2813 99.4546 38.4928 100.006 38.9156C100.567 39.3385 100.847 39.9727 100.847 40.8185C100.847 41.3516 100.705 41.8112 100.42 42.1973C100.135 42.5834 99.7442 42.873 99.2478 43.066V43.1212C99.45 43.1947 99.6431 43.3602 99.8269 43.6176C100.011 43.8658 100.176 44.1737 100.323 44.5414L101.495 47.4646C101.532 47.5933 101.55 47.6714 101.55 47.699C101.55 47.8737 101.302 47.961 100.806 47.961H100.392C99.9878 47.961 99.7488 47.8737 99.6752 47.699L98.5997 44.9964C98.4342 44.6195 98.2366 44.3576 98.0068 44.2105C97.7862 44.0634 97.4461 43.9899 96.9864 43.9899H96.2005V47.5611C96.2005 47.8277 95.9569 47.961 95.4697 47.961H95.125ZM97.6897 42.4317C98.039 42.4317 98.3423 42.2984 98.5997 42.0319C98.8571 41.7561 98.9858 41.4344 98.9858 41.0667C98.9858 40.6714 98.8617 40.368 98.6135 40.1566C98.3653 39.936 98.0252 39.8257 97.5931 39.8257H96.2005V42.4317H97.6897Z" fill="#A969AA"/>
<path d="M108.146 48.0299C106.74 48.0299 105.66 47.6071 104.906 46.7614C104.152 45.9157 103.775 44.6931 103.775 43.0936C103.775 41.5033 104.152 40.2899 104.906 39.4534C105.66 38.6077 106.74 38.1848 108.146 38.1848C109.553 38.1848 110.628 38.6031 111.373 39.4396C112.127 40.2761 112.504 41.4941 112.504 43.0936C112.504 44.6931 112.127 45.9157 111.373 46.7614C110.628 47.6071 109.553 48.0299 108.146 48.0299ZM108.146 46.4856C108.955 46.4856 109.571 46.196 109.994 45.6169C110.426 45.0378 110.642 44.1967 110.642 43.0936C110.642 41.9905 110.431 41.154 110.008 40.584C109.585 40.0141 108.964 39.7291 108.146 39.7291C107.328 39.7291 106.703 40.0141 106.271 40.584C105.848 41.154 105.637 41.9905 105.637 43.0936C105.637 44.1967 105.848 45.0378 106.271 45.6169C106.703 46.196 107.328 46.4856 108.146 46.4856Z" fill="#A969AA"/>
<path d="M117.556 47.961C117.152 47.961 116.922 47.8737 116.867 47.699L114.633 38.7777C114.615 38.6674 114.606 38.5985 114.606 38.5709C114.606 38.3595 114.858 38.2538 115.364 38.2538H115.64C116.118 38.2538 116.384 38.3733 116.439 38.6123L117.722 43.8658L117.915 44.762L118.094 45.6031C118.14 45.3549 118.241 44.9137 118.397 44.2794L118.508 43.852L119.832 38.5295C119.868 38.3457 120.093 38.2538 120.507 38.2538H120.935C121.339 38.2538 121.564 38.3457 121.61 38.5295L122.92 43.8658C122.994 44.1599 123.081 44.5598 123.182 45.0654L123.306 45.6721L123.72 43.852L125.002 38.6123C125.057 38.3733 125.324 38.2538 125.802 38.2538H125.926C126.432 38.2538 126.684 38.3595 126.684 38.5709L126.657 38.7777L124.368 47.699C124.34 47.7817 124.262 47.8461 124.134 47.8921C124.014 47.938 123.862 47.961 123.679 47.961H122.824C122.64 47.961 122.484 47.938 122.355 47.8921C122.226 47.8461 122.153 47.7817 122.134 47.699L120.879 42.6386L120.631 41.3976L120.383 42.6386L119.087 47.699C119.069 47.7817 118.995 47.8461 118.866 47.8921C118.747 47.938 118.595 47.961 118.411 47.961H117.556Z" fill="#A969AA"/>
<path d="M129.757 47.9334C129.582 47.9334 129.454 47.8921 129.371 47.8093C129.288 47.7266 129.247 47.5979 129.247 47.4232V38.7915C129.247 38.6077 129.288 38.479 129.371 38.4054C129.454 38.3227 129.582 38.2813 129.757 38.2813H132.653C134.022 38.2813 135.089 38.6858 135.852 39.4947C136.624 40.3037 137.01 41.5079 137.01 43.1074C137.01 44.7069 136.624 45.9111 135.852 46.72C135.089 47.529 134.022 47.9334 132.653 47.9334H129.757ZM132.611 46.3891C133.411 46.3891 134.032 46.1179 134.473 45.5756C134.923 45.024 135.148 44.2013 135.148 43.1074C135.148 42.0135 134.923 41.1953 134.473 40.653C134.032 40.1014 133.411 39.8257 132.611 39.8257H131.067V46.3891H132.611Z" fill="#A969AA"/>
<path d="M142.557 48.0299C141.941 48.0299 141.39 47.9656 140.903 47.8369C140.425 47.7082 140.052 47.5473 139.786 47.3543C139.556 47.1796 139.441 47.0234 139.441 46.8855C139.441 46.7108 139.533 46.4948 139.717 46.2374C139.901 45.9708 140.052 45.8375 140.172 45.8375C140.227 45.8375 140.342 45.8881 140.517 45.9892C140.802 46.1363 141.082 46.2558 141.358 46.3477C141.633 46.4396 141.955 46.4856 142.323 46.4856C142.737 46.4856 143.081 46.3891 143.357 46.196C143.642 45.9938 143.785 45.6951 143.785 45.2998C143.785 45.0516 143.711 44.8448 143.564 44.6793C143.426 44.5046 143.251 44.3622 143.04 44.2518C142.829 44.1323 142.534 43.9945 142.157 43.8382L141.675 43.6314C141.252 43.4475 140.898 43.2545 140.613 43.0522C140.328 42.8408 140.094 42.5604 139.91 42.2111C139.726 41.8618 139.634 41.4206 139.634 40.8874C139.634 40.3083 139.777 39.8165 140.062 39.412C140.356 38.9983 140.746 38.6904 141.234 38.4882C141.721 38.2859 142.254 38.1848 142.833 38.1848C143.247 38.1848 143.647 38.2308 144.033 38.3227C144.419 38.4146 144.718 38.5387 144.929 38.695C145.122 38.8329 145.219 38.9708 145.219 39.1087C145.219 39.2741 145.14 39.4901 144.984 39.7567C144.828 40.0141 144.69 40.1428 144.57 40.1428C144.525 40.1428 144.451 40.1198 144.35 40.0739C144.249 40.0279 144.171 39.9911 144.115 39.9636C143.748 39.8073 143.357 39.7291 142.943 39.7291C142.447 39.7291 142.079 39.8303 141.84 40.0325C141.611 40.2255 141.496 40.4737 141.496 40.7771C141.496 41.0437 141.565 41.2643 141.702 41.4389C141.84 41.6044 142.01 41.7377 142.213 41.8388C142.415 41.9399 142.714 42.0686 143.109 42.2249C143.633 42.4363 144.065 42.6432 144.405 42.8454C144.745 43.0476 145.035 43.3372 145.274 43.7141C145.522 44.0818 145.646 44.5552 145.646 45.1343C145.646 46.0995 145.352 46.8257 144.764 47.3129C144.175 47.7909 143.44 48.0299 142.557 48.0299Z" fill="#A969AA"/>
<path d="M148.997 47.9334C148.822 47.9334 148.693 47.8921 148.611 47.8093C148.528 47.7266 148.486 47.5979 148.486 47.4232V38.7915C148.486 38.6077 148.528 38.479 148.611 38.4054C148.693 38.3227 148.822 38.2813 148.997 38.2813H153.823C153.951 38.2813 154.043 38.3273 154.098 38.4192C154.163 38.5111 154.195 38.6628 154.195 38.8742V39.2328C154.195 39.4442 154.163 39.5959 154.098 39.6878C154.043 39.7797 153.951 39.8257 153.823 39.8257H150.293V42.2249H153.437C153.565 42.2249 153.657 42.2709 153.712 42.3628C153.777 42.4547 153.809 42.6064 153.809 42.8178V43.1763C153.809 43.3877 153.777 43.5394 153.712 43.6314C153.657 43.7233 153.565 43.7692 153.437 43.7692H150.293V46.3891H153.836C153.965 46.3891 154.057 46.4351 154.112 46.527C154.177 46.6189 154.209 46.7706 154.209 46.982V47.3405C154.209 47.5519 154.177 47.7036 154.112 47.7955C154.057 47.8875 153.965 47.9334 153.836 47.9334H148.997Z" fill="#A969AA"/>
<path d="M158.027 47.961C157.54 47.961 157.296 47.8277 157.296 47.5611V38.6536C157.296 38.387 157.54 38.2538 158.027 38.2538H158.523C158.725 38.2538 158.886 38.2767 159.006 38.3227C159.135 38.3687 159.236 38.456 159.309 38.5847L162.839 43.9761C163.023 44.2426 163.184 44.5184 163.322 44.8034L163.377 44.7896C163.358 44.5782 163.349 44.2656 163.349 43.852V38.6536C163.349 38.387 163.593 38.2538 164.08 38.2538H164.383C164.871 38.2538 165.114 38.387 165.114 38.6536V47.5611C165.114 47.8277 164.871 47.961 164.383 47.961H163.942C163.749 47.961 163.593 47.938 163.473 47.8921C163.363 47.8461 163.267 47.7634 163.184 47.6439L159.571 42.156C159.369 41.871 159.208 41.5998 159.089 41.3424L159.033 41.3562C159.052 41.5676 159.061 41.8802 159.061 42.2938V47.5611C159.061 47.8277 158.817 47.961 158.33 47.961H158.027Z" fill="#A969AA"/>
<path d="M171.026 48.0299C170.41 48.0299 169.859 47.9656 169.372 47.8369C168.893 47.7082 168.521 47.5473 168.255 47.3543C168.025 47.1796 167.91 47.0234 167.91 46.8855C167.91 46.7108 168.002 46.4948 168.186 46.2374C168.37 45.9708 168.521 45.8375 168.641 45.8375C168.696 45.8375 168.811 45.8881 168.985 45.9892C169.27 46.1363 169.551 46.2558 169.827 46.3477C170.102 46.4396 170.424 46.4856 170.792 46.4856C171.205 46.4856 171.55 46.3891 171.826 46.196C172.111 45.9938 172.253 45.6951 172.253 45.2998C172.253 45.0516 172.18 44.8448 172.033 44.6793C171.895 44.5046 171.72 44.3622 171.509 44.2518C171.297 44.1323 171.003 43.9945 170.626 43.8382L170.144 43.6314C169.721 43.4475 169.367 43.2545 169.082 43.0522C168.797 42.8408 168.563 42.5604 168.379 42.2111C168.195 41.8618 168.103 41.4206 168.103 40.8874C168.103 40.3083 168.245 39.8165 168.53 39.412C168.825 38.9983 169.215 38.6904 169.702 38.4882C170.19 38.2859 170.723 38.1848 171.302 38.1848C171.716 38.1848 172.115 38.2308 172.502 38.3227C172.888 38.4146 173.186 38.5387 173.398 38.695C173.591 38.8329 173.687 38.9708 173.687 39.1087C173.687 39.2741 173.609 39.4901 173.453 39.7567C173.297 40.0141 173.159 40.1428 173.039 40.1428C172.993 40.1428 172.92 40.1198 172.819 40.0739C172.718 40.0279 172.639 39.9911 172.584 39.9636C172.217 39.8073 171.826 39.7291 171.412 39.7291C170.916 39.7291 170.548 39.8303 170.309 40.0325C170.079 40.2255 169.964 40.4737 169.964 40.7771C169.964 41.0437 170.033 41.2643 170.171 41.4389C170.309 41.6044 170.479 41.7377 170.681 41.8388C170.884 41.9399 171.182 42.0686 171.578 42.2249C172.102 42.4363 172.534 42.6432 172.874 42.8454C173.214 43.0476 173.504 43.3372 173.743 43.7141C173.991 44.0818 174.115 44.5552 174.115 45.1343C174.115 46.0995 173.821 46.8257 173.232 47.3129C172.644 47.7909 171.909 48.0299 171.026 48.0299Z" fill="#A969AA"/>
<path d="M177.59 47.9748C177.093 47.9748 176.845 47.8369 176.845 47.5611V38.6536C176.845 38.3779 177.093 38.24 177.59 38.24H177.934C178.421 38.24 178.665 38.3779 178.665 38.6536V47.5611C178.665 47.8369 178.421 47.9748 177.934 47.9748H177.59Z" fill="#A969AA"/>
<path d="M182.873 47.961C182.386 47.961 182.143 47.8277 182.143 47.5611V38.6536C182.143 38.387 182.386 38.2538 182.873 38.2538H183.37C183.572 38.2538 183.733 38.2767 183.852 38.3227C183.981 38.3687 184.082 38.456 184.156 38.5847L187.686 43.9761C187.87 44.2426 188.03 44.5184 188.168 44.8034L188.223 44.7896C188.205 44.5782 188.196 44.2656 188.196 43.852V38.6536C188.196 38.387 188.439 38.2538 188.927 38.2538H189.23C189.717 38.2538 189.961 38.387 189.961 38.6536V47.5611C189.961 47.8277 189.717 47.961 189.23 47.961H188.789C188.596 47.961 188.439 47.938 188.32 47.8921C188.21 47.8461 188.113 47.7634 188.03 47.6439L184.418 42.156C184.216 41.871 184.055 41.5998 183.935 41.3424L183.88 41.3562C183.898 41.5676 183.908 41.8802 183.908 42.2938V47.5611C183.908 47.8277 183.664 47.961 183.177 47.961H182.873Z" fill="#A969AA"/>
<path d="M200.161 42.7075C200.336 42.7075 200.464 42.7489 200.547 42.8316C200.63 42.9051 200.671 43.0292 200.671 43.2039V46.982C200.671 47.3773 200.345 47.6531 199.692 47.8093C199.04 47.9564 198.309 48.0299 197.5 48.0299C196.011 48.0299 194.898 47.6301 194.163 46.8303C193.428 46.0306 193.06 44.7942 193.06 43.1212C193.06 39.8303 194.581 38.1848 197.624 38.1848C198.047 38.1848 198.479 38.2262 198.92 38.3089C199.37 38.3916 199.738 38.5066 200.023 38.6536C200.317 38.7915 200.464 38.9432 200.464 39.1087C200.464 39.219 200.418 39.366 200.326 39.5499C200.244 39.7246 200.143 39.8808 200.023 40.0187C199.904 40.1566 199.798 40.2255 199.706 40.2255C199.678 40.2255 199.564 40.1796 199.361 40.0877C199.168 39.9957 198.92 39.913 198.617 39.8395C198.323 39.7659 197.982 39.7291 197.596 39.7291C196.668 39.7291 195.988 40.0095 195.556 40.5703C195.133 41.131 194.921 41.9675 194.921 43.0798C194.921 45.3503 195.79 46.4856 197.527 46.4856C197.996 46.4856 198.437 46.4442 198.851 46.3615V44.2518H197.5C197.371 44.2518 197.275 44.2059 197.21 44.114C197.155 44.022 197.128 43.8704 197.128 43.6589V43.3004C197.128 43.089 197.155 42.9373 197.21 42.8454C197.275 42.7535 197.371 42.7075 197.5 42.7075H200.161Z" fill="#A969AA"/>
<path d="M86.0525 0.0013138H86.2954C86.8498 0.00651654 87.3795 0.231254 87.7684 0.626339C88.1574 1.02142 88.3738 1.5546 88.3703 2.10899V21.2622L96.4268 12.7263C96.6227 12.5189 96.8588 12.3537 97.1207 12.2408C97.3827 12.1278 97.6649 12.0697 97.9502 12.0697C98.3586 12.0696 98.7582 12.1888 99.0997 12.4128C99.4412 12.6369 99.7098 12.9558 99.8724 13.3305C100.035 13.7052 100.084 14.1193 100.015 14.5217C99.945 14.9242 99.7592 15.2975 99.4801 15.5957L93.7151 21.7677L100.11 29.647C100.36 29.9544 100.517 30.3263 100.564 30.7195C100.611 31.1126 100.545 31.5111 100.374 31.8684C100.204 32.2258 99.9358 32.5275 99.6008 32.7387C99.2659 32.9498 98.8779 33.0617 98.482 33.0613H98.3901C98.079 33.0621 97.7717 32.9928 97.4909 32.8586C97.2102 32.7245 96.9632 32.529 96.7683 32.2865L88.3703 21.9384V30.9405C88.3703 31.496 88.1496 32.0288 87.7568 32.4216C87.364 32.8144 86.8312 33.0351 86.2757 33.0351H86.0328C85.4773 33.0351 84.9445 32.8144 84.5517 32.4216C84.1589 32.0288 83.9382 31.496 83.9382 30.9405V2.10899C83.9365 1.83116 83.99 1.55575 84.0957 1.29881C84.2014 1.04187 84.3572 0.808547 84.554 0.612392C84.7507 0.416238 84.9846 0.26116 85.2418 0.156248C85.4991 0.0513347 85.7747 -0.00130462 86.0525 0.0013138Z" fill="white"/>
<path d="M107.95 12.0369H108.003C108.29 12.0369 108.575 12.0936 108.841 12.2039C109.107 12.3142 109.348 12.4759 109.551 12.6796C109.754 12.8833 109.915 13.1252 110.025 13.3912C110.134 13.6572 110.19 13.9422 110.189 14.2299V23.8755C110.189 27.5174 111.794 29.3406 115.002 29.345C115.64 29.3743 116.276 29.2577 116.862 29.0039C117.448 28.7502 117.969 28.3661 118.384 27.8808C119.272 26.7412 119.715 25.3177 119.631 23.8755V14.2299C119.63 13.9422 119.686 13.6572 119.796 13.3912C119.905 13.1252 120.066 12.8833 120.269 12.6796C120.472 12.4759 120.714 12.3142 120.979 12.2039C121.245 12.0936 121.53 12.0369 121.818 12.0369C122.106 12.036 122.392 12.0922 122.658 12.2021C122.924 12.312 123.167 12.4735 123.37 12.6773C123.574 12.8811 123.736 13.1232 123.846 13.3897C123.956 13.6561 124.012 13.9417 124.011 14.2299V24.5846C124.05 25.7857 123.842 26.982 123.399 28.0992C122.956 29.2163 122.288 30.2305 121.437 31.0784C119.637 32.7058 117.297 33.6068 114.871 33.6068C112.444 33.6068 110.105 32.7058 108.305 31.0784C107.457 30.1986 106.797 29.1562 106.364 28.0141C105.931 26.8721 105.733 25.654 105.783 24.4336V14.2299C105.783 13.6528 106.011 13.099 106.416 12.6884C106.822 12.2779 107.373 12.0438 107.95 12.0369Z" fill="white"/>
<path d="M129.467 30.8484V14.2296C129.466 13.9414 129.523 13.6559 129.632 13.3894C129.742 13.1229 129.904 12.8808 130.108 12.677C130.311 12.4732 130.554 12.3117 130.82 12.2018C131.086 12.0919 131.372 12.0357 131.66 12.0366C131.948 12.0366 132.233 12.0934 132.499 12.2036C132.764 12.3139 133.006 12.4756 133.209 12.6793C133.412 12.8831 133.573 13.1249 133.682 13.3909C133.792 13.657 133.848 13.942 133.847 14.2296V15.2737C134.671 14.153 135.671 13.1729 136.808 12.3715C137.787 11.7467 138.93 11.4267 140.091 11.4522C141.424 11.3761 142.745 11.7432 143.847 12.4962C144.893 13.3867 145.685 14.5373 146.145 15.8318C147.017 14.5452 148.103 13.417 149.356 12.4962C150.417 11.7911 151.667 11.4268 152.941 11.4522C153.752 11.445 154.555 11.6079 155.299 11.9302C156.043 12.2525 156.712 12.7271 157.261 13.3235C157.845 13.9047 158.306 14.5969 158.617 15.3593C158.928 16.1217 159.084 16.9388 159.074 17.7622V30.8484C159.074 31.4282 158.843 31.9844 158.433 32.3944C158.023 32.8044 157.467 33.0348 156.887 33.0348H156.835C156.255 33.0348 155.698 32.8044 155.288 32.3944C154.878 31.9844 154.648 31.4282 154.648 30.8484V18.9112C154.648 16.5869 153.499 15.4247 151.201 15.4247C150.543 15.4294 149.897 15.5938 149.317 15.9038C148.737 16.2138 148.241 16.66 147.872 17.2041C146.933 18.4769 146.452 20.0294 146.506 21.6099V30.8484C146.504 31.4288 146.273 31.9849 145.861 32.3948C145.45 32.8047 144.894 33.0348 144.313 33.0348H144.261C143.681 33.0348 143.124 32.8044 142.714 32.3944C142.304 31.9844 142.074 31.4282 142.074 30.8484V19.4956C142.074 16.7423 140.947 15.3678 138.693 15.3721C138.032 15.3696 137.38 15.52 136.788 15.8117C136.196 16.1033 135.679 16.5282 135.278 17.0531C134.327 18.2227 133.831 19.6962 133.88 21.2028V30.8484C133.88 31.4282 133.649 31.9844 133.239 32.3944C132.829 32.8044 132.273 33.0348 131.693 33.0348C131.403 33.04 131.114 32.9873 130.844 32.8798C130.574 32.7723 130.329 32.6121 130.122 32.4085C129.914 32.205 129.75 31.9622 129.637 31.6943C129.525 31.4264 129.467 31.1388 129.467 30.8484Z" fill="white"/>
<path d="M166.592 12.0369H166.644C166.932 12.0369 167.217 12.0936 167.482 12.2039C167.748 12.3142 167.989 12.4759 168.193 12.6796C168.396 12.8833 168.557 13.1252 168.666 13.3912C168.776 13.6572 168.832 13.9422 168.831 14.2299V23.8755C168.831 27.5174 170.435 29.3406 173.644 29.345C174.281 29.3738 174.917 29.257 175.503 29.0033C176.089 28.7496 176.61 28.3657 177.025 27.8807C177.913 26.7411 178.356 25.3177 178.273 23.8755V14.2299C178.272 13.9422 178.328 13.6572 178.437 13.3912C178.547 13.1252 178.708 12.8833 178.911 12.6796C179.114 12.4759 179.355 12.3142 179.621 12.2039C179.887 12.0936 180.171 12.0369 180.459 12.0369C181.041 12.0369 181.599 12.2679 182.01 12.6792C182.421 13.0905 182.652 13.6483 182.652 14.2299V24.5846C182.692 25.7857 182.483 26.982 182.041 28.0992C181.598 29.2163 180.93 30.2305 180.078 31.0784C178.279 32.7058 175.939 33.6068 173.512 33.6068C171.086 33.6068 168.746 32.7058 166.946 31.0784C166.099 30.1986 165.439 29.1562 165.005 28.0141C164.572 26.8721 164.374 25.654 164.425 24.4336V14.2299C164.425 13.6528 164.652 13.099 165.058 12.6884C165.463 12.2779 166.015 12.0438 166.592 12.0369Z" fill="white"/>
<path d="M190.302 0.00123044C190.888 0.00123044 191.451 0.234366 191.866 0.649339C192.281 1.06431 192.514 1.62713 192.514 2.21399V30.8222C192.514 31.4091 192.281 31.9719 191.866 32.3869C191.451 32.8018 190.888 33.035 190.302 33.035C190.01 33.0358 189.722 32.9792 189.453 32.8684C189.184 32.7576 188.939 32.5947 188.733 32.3892C188.527 32.1836 188.363 31.9394 188.251 31.6705C188.14 31.4017 188.082 31.1134 188.082 30.8222V2.21399C188.082 1.92285 188.14 1.63455 188.251 1.36566C188.363 1.09676 188.527 0.852574 188.733 0.647015C188.939 0.441455 189.184 0.278601 189.453 0.167786C189.722 0.0569715 190.01 0.000366537 190.302 0.00123044Z" fill="white"/>
<path d="M200.847 12.0369H200.899C201.187 12.0369 201.472 12.0936 201.737 12.2039C202.003 12.3142 202.244 12.4759 202.448 12.6796C202.651 12.8833 202.812 13.1252 202.921 13.3912C203.031 13.6572 203.087 13.9422 203.086 14.2299V23.8755C203.086 27.5174 204.69 29.3406 207.899 29.345C208.537 29.3739 209.174 29.257 209.761 29.0033C210.348 28.7497 210.87 28.3658 211.287 27.8807C212.171 26.7395 212.614 25.3172 212.534 23.8755V14.2299C212.533 13.9422 212.589 13.6572 212.699 13.3912C212.808 13.1252 212.969 12.8833 213.172 12.6796C213.375 12.4759 213.617 12.3142 213.882 12.2039C214.148 12.0936 214.433 12.0369 214.721 12.0369C215.008 12.0369 215.293 12.0936 215.559 12.2039C215.825 12.3142 216.066 12.4759 216.269 12.6796C216.472 12.8833 216.633 13.1252 216.743 13.3912C216.852 13.6572 216.908 13.9422 216.907 14.2299V24.5846C216.948 25.7852 216.741 26.9814 216.299 28.0986C215.858 29.2158 215.191 30.2301 214.34 31.0784C213.061 32.4061 211.409 33.3143 209.603 33.6831C207.797 34.0519 205.921 33.8637 204.224 33.1436C202.527 32.4235 201.088 31.2054 200.098 29.6502C199.108 28.095 198.614 26.2759 198.68 24.4336V14.2299C198.678 13.6523 198.905 13.0974 199.311 12.6865C199.717 12.2756 200.269 12.0421 200.847 12.0369Z" fill="white"/>
<path d="M222.147 12.0369H237.518C237.753 12.045 237.982 12.1162 238.18 12.243C238.378 12.3698 238.539 12.5475 238.645 12.7575C238.751 12.9676 238.799 13.2023 238.783 13.437C238.767 13.6718 238.689 13.898 238.556 14.092L227.393 29.194H238.076C238.586 29.194 239.076 29.3966 239.437 29.7574C239.797 30.1182 240 30.6076 240 31.1178C240 31.6403 239.793 32.1412 239.423 32.5106C239.054 32.8801 238.553 33.0877 238.03 33.0877H222.534C222.3 33.0784 222.072 33.0063 221.875 32.8791C221.677 32.7519 221.518 32.5741 221.412 32.3642C221.307 32.1543 221.26 31.9201 221.276 31.6859C221.292 31.4516 221.371 31.2261 221.504 31.0325L232.771 15.9306H222.147C221.637 15.9306 221.147 15.7278 220.787 15.367C220.426 15.0062 220.223 14.5169 220.223 14.0067C220.217 13.7502 220.262 13.495 220.356 13.2563C220.45 13.0176 220.591 12.8001 220.77 12.6165C220.949 12.433 221.164 12.2871 221.4 12.1876C221.636 12.088 221.89 12.0368 222.147 12.0369Z" fill="white"/>
<path d="M62.0535 26.0318C59.7226 22.0922 55.737 19.8598 50.7337 19.5577C49.9374 17.1471 48.2608 15.1258 46.0389 13.8978C43.6392 12.6064 40.8458 12.2508 38.1991 12.8997C35.8431 10.3298 32.6819 8.63918 29.2364 8.10649C25.4834 7.52827 21.6432 8.06479 18.1923 9.64949C11.495 12.683 7.73919 18.5859 8.22508 25.0469C5.73773 25.7409 3.56492 27.2696 2.07155 29.3763C0.578188 31.4831 -0.144774 34.0395 0.0240825 36.6163C0.29329 41.7903 3.91119 47.2205 10.3065 47.6079H20.5167H22.4865C23.0508 47.6079 23.5919 47.3837 23.9908 46.9848C24.3898 46.5858 24.6139 46.0447 24.6139 45.4805V37.3385L32.4078 46.925C32.5917 47.1477 32.8223 47.3272 33.0833 47.4509C33.3442 47.5746 33.6292 47.6393 33.918 47.6406H34.0034C34.367 47.6314 34.7209 47.5216 35.026 47.3236C35.331 47.1255 35.5753 46.8468 35.7316 46.5184C35.888 46.19 35.9504 45.8248 35.9119 45.4631C35.8734 45.1014 35.7356 44.7574 35.5136 44.4693L29.6041 37.1547L34.9555 31.4225C35.2063 31.1423 35.3717 30.7961 35.4321 30.4248C35.4924 30.0535 35.4453 29.6728 35.2961 29.3275C35.1469 28.9822 34.902 28.6869 34.5903 28.4764C34.2786 28.2659 33.9132 28.1489 33.5372 28.1395C33.2718 28.1405 33.0094 28.1951 32.7657 28.3001C32.522 28.405 32.302 28.5581 32.1189 28.7502L24.6271 36.6819V20.733C24.6271 20.2106 24.4195 19.7095 24.0501 19.3401C23.6807 18.9707 23.1797 18.7632 22.6572 18.7632H22.4406C21.9181 18.7632 21.4171 18.9707 21.0477 19.3401C20.6783 19.7095 20.4708 20.2106 20.4708 20.733V43.4975H10.451C6.51134 43.2283 4.26575 39.7417 4.09503 36.4193C3.92431 33.2413 5.60522 29.5315 10.8187 28.6648C11.0922 28.6193 11.3538 28.519 11.5877 28.37C11.8216 28.221 12.0231 28.0264 12.18 27.7977C12.3369 27.5691 12.4461 27.3111 12.501 27.0393C12.5559 26.7674 12.5554 26.4873 12.4996 26.2157C11.1864 19.8335 15.428 15.421 19.847 13.4184C24.9028 11.1334 31.7906 11.2057 35.8025 16.5308C36.0756 16.8906 36.4599 17.15 36.8957 17.2687C37.3315 17.3875 37.7943 17.3589 38.2122 17.1874C39.1451 16.8217 40.1457 16.6611 41.1462 16.7167C42.1466 16.7722 43.1234 17.0425 44.01 17.5091C44.8259 17.9701 45.5257 18.6114 46.056 19.3841C46.5863 20.1568 46.933 21.0403 47.0698 21.9674C47.1614 22.447 47.4202 22.8785 47.8002 23.1852C48.1801 23.4918 48.6566 23.6536 49.1447 23.6418C54.5551 23.5236 57.2012 26.0187 58.4685 28.1395C59.3806 29.7673 59.8596 31.6019 59.8596 33.4678C59.8596 35.3338 59.3806 37.1684 58.4685 38.7962C56.7482 41.8231 53.754 43.4909 50.0377 43.4909H41.0159C40.4907 43.4793 39.9793 43.6607 39.5788 44.0007C39.1783 44.3407 38.9163 44.8158 38.8426 45.336C38.8142 45.6235 38.8462 45.9136 38.9365 46.188C39.0267 46.4623 39.1733 46.7148 39.3667 46.9293C39.5602 47.1438 39.7963 47.3155 40.0599 47.4334C40.3235 47.5514 40.6089 47.6131 40.8977 47.6144H50.0902C55.2839 47.6144 59.6635 45.139 62.1061 40.8316C63.383 38.5725 64.0498 36.0199 64.0405 33.4248C64.0313 30.8298 63.3465 28.2818 62.0535 26.0318Z" fill="white"/>
</svg>
