<svg width="225" height="42" viewBox="0 0 225 42" fill="none" xmlns="http://www.w3.org/2000/svg">
<path d="M99.5107 19.1866C98.8107 19.7866 97.9107 19.8866 97.1107 19.3866C96.8107 19.1866 96.5107 19.0866 96.3107 18.8866C95.7107 18.5866 95.0107 18.4866 94.2107 18.4866C92.3107 18.4866 91.4107 19.1866 91.4107 20.5866C91.4107 21.5866 92.6107 22.5866 95.0107 23.4866C97.4107 24.3866 99.1107 25.4866 100.211 26.5866C101.211 27.6866 101.811 29.0866 101.811 30.5866C101.811 32.3866 101.011 34.0866 99.5107 35.3866C98.0107 36.6866 96.1107 37.4866 94.1107 37.4866C91.9107 37.4866 90.1107 36.7866 88.5107 35.3866C87.4107 34.3866 87.7107 32.6866 89.0107 31.9866C89.7107 31.6866 90.5107 31.7866 91.1107 32.1866C92.1107 32.8866 93.1107 33.2866 94.1107 33.2866C95.1107 33.2866 95.9107 32.9866 96.6107 32.4866C97.3107 31.9866 97.7107 31.3866 97.7107 30.6866C97.7107 29.4866 96.4107 28.3866 93.9107 27.3866C91.4107 26.3866 89.6107 25.3866 88.7107 24.3866C87.7107 23.3866 87.2107 22.0866 87.2107 20.5866C87.2107 18.8866 88.0107 17.1866 89.3107 16.0866C90.7107 14.8866 92.4107 14.2866 94.4107 14.2866C95.9107 14.2866 97.5107 14.7866 99.2107 15.8866C100.411 16.5866 100.511 18.2866 99.5107 19.1866Z" fill="white"/>
<path d="M108.111 14.8866H108.611C109.711 14.8866 110.711 15.7866 110.711 16.9866V27.2866C110.711 31.0866 112.411 32.9866 115.711 32.9866C117.211 32.9866 118.411 32.4866 119.211 31.4866C120.111 30.4866 120.511 29.0866 120.511 27.2866V16.8866C120.511 15.7866 121.411 14.7866 122.611 14.7866H123.111C124.211 14.7866 125.211 15.6866 125.211 16.8866V27.9866C125.211 30.7866 124.311 32.9866 122.511 34.7866C120.711 36.5866 118.411 37.4866 115.611 37.4866C112.811 37.4866 110.511 36.5866 108.711 34.7866C106.911 32.9866 106.111 30.6866 106.111 27.7866V16.8866C106.011 15.7866 106.911 14.8866 108.111 14.8866Z" fill="white"/>
<path d="M130.411 34.7866V16.8866C130.411 15.7866 131.311 14.7866 132.511 14.7866H132.911C134.011 14.7866 135.011 15.6866 135.011 16.8866V18.4866C136.311 16.9866 137.511 15.8866 138.611 15.2866C139.711 14.5866 140.911 14.2866 142.211 14.2866C144.211 14.2866 145.911 14.9866 147.311 16.2866C148.711 17.5866 149.411 19.1866 149.411 20.9866V34.7866C149.411 35.8866 148.511 36.8866 147.311 36.8866H146.811C145.711 36.8866 144.711 35.9866 144.711 34.7866V22.2866C144.711 21.0866 144.311 20.0866 143.511 19.2866C142.711 18.4866 141.711 18.0866 140.611 18.0866C139.111 18.0866 137.711 18.7866 136.611 20.0866C135.511 21.3866 134.911 22.9866 134.911 24.7866V34.6866C134.911 35.7866 134.011 36.7866 132.811 36.7866H132.311C131.311 36.8866 130.411 35.8866 130.411 34.7866Z" fill="white"/>
<path d="M174.511 26.7866H157.811C158.211 29.0866 159.111 30.6866 160.611 31.6866C162.011 32.6866 163.611 33.2866 165.311 33.2866C167.411 33.2866 169.211 32.5866 170.811 31.1866C171.511 30.5866 172.611 30.5866 173.411 31.0866L173.511 31.1866C174.511 31.9866 174.611 33.4866 173.711 34.2866C171.411 36.3866 168.511 37.4866 165.111 37.4866C161.811 37.4866 159.111 36.3866 156.911 34.0866C154.711 31.8866 153.611 29.0866 153.611 25.7866C153.611 22.6866 154.711 19.9866 156.911 17.6866C159.111 15.3866 161.811 14.2866 165.111 14.2866C168.311 14.2866 171.011 15.4866 173.211 17.7866C175.011 19.5866 176.111 21.8866 176.411 24.6866C176.611 25.6866 175.711 26.7866 174.511 26.7866ZM158.311 23.0866H171.711C170.211 20.0866 168.011 18.5866 165.111 18.5866C161.911 18.4866 159.611 19.9866 158.311 23.0866Z" fill="white"/>
<path d="M192.711 19.1866C192.011 19.7866 191.111 19.8866 190.311 19.3866C190.011 19.1866 189.711 19.0866 189.511 18.8866C188.911 18.5866 188.211 18.4866 187.411 18.4866C185.511 18.4866 184.611 19.1866 184.611 20.5866C184.611 21.5866 185.811 22.5866 188.211 23.4866C190.611 24.3866 192.311 25.4866 193.411 26.5866C194.411 27.6866 195.011 29.0866 195.011 30.5866C195.011 32.3866 194.211 34.0866 192.711 35.3866C191.211 36.6866 189.311 37.4866 187.311 37.4866C185.111 37.4866 183.311 36.7866 181.711 35.3866C180.611 34.3866 180.911 32.6866 182.211 31.9866C182.911 31.6866 183.711 31.7866 184.311 32.1866C185.311 32.8866 186.311 33.2866 187.311 33.2866C188.311 33.2866 189.111 32.9866 189.811 32.4866C190.511 31.9866 190.911 31.3866 190.911 30.6866C190.911 29.4866 189.611 28.3866 187.111 27.3866C184.611 26.3866 182.811 25.3866 181.911 24.3866C180.911 23.3866 180.411 22.0866 180.411 20.5866C180.411 18.8866 181.211 17.1866 182.511 16.0866C183.911 14.8866 185.611 14.2866 187.611 14.2866C189.111 14.2866 190.711 14.7866 192.411 15.8866C193.611 16.5866 193.711 18.2866 192.711 19.1866Z" fill="white"/>
<path d="M198.611 7.68667C198.611 6.68667 199.011 5.88667 199.711 5.18667C200.411 4.48667 201.311 4.08667 202.211 4.08667C203.211 4.08667 204.011 4.48667 204.711 5.18667C205.411 5.88667 205.811 6.68667 205.811 7.68667C205.811 8.68667 205.411 9.48667 204.711 10.1867C204.011 10.8867 203.211 11.1867 202.211 11.1867C201.211 11.1867 200.411 10.8867 199.711 10.1867C199.011 9.48667 198.611 8.58667 198.611 7.68667ZM202.011 14.8867H202.511C203.611 14.8867 204.611 15.7867 204.611 16.9867V34.8867C204.611 35.9867 203.711 36.9867 202.511 36.9867H202.011C200.911 36.9867 199.911 36.0867 199.911 34.8867V16.8867C199.911 15.7867 200.811 14.8867 202.011 14.8867Z" fill="white"/>
<path d="M221.911 19.1866C221.211 19.7866 220.311 19.8866 219.511 19.3866C219.211 19.1866 218.911 19.0866 218.711 18.8866C218.111 18.5866 217.411 18.4866 216.611 18.4866C214.711 18.4866 213.811 19.1866 213.811 20.5866C213.811 21.5866 215.011 22.5866 217.411 23.4866C219.811 24.3866 221.511 25.4866 222.611 26.5866C223.611 27.6866 224.211 29.0866 224.211 30.5866C224.211 32.3866 223.411 34.0866 221.911 35.3866C220.411 36.6866 218.511 37.4866 216.511 37.4866C214.311 37.4866 212.511 36.7866 210.911 35.3866C209.811 34.3866 210.111 32.6866 211.411 31.9866C212.111 31.6866 212.911 31.7866 213.511 32.1866C214.511 32.8866 215.511 33.2866 216.511 33.2866C217.511 33.2866 218.311 32.9866 219.011 32.4866C219.711 31.9866 220.111 31.3866 220.111 30.6866C220.111 29.4866 218.811 28.3866 216.311 27.3866C213.811 26.3866 212.011 25.3866 211.111 24.3866C210.111 23.3866 209.611 22.0866 209.611 20.5866C209.611 18.8866 210.411 17.1866 211.711 16.0866C213.111 14.8866 214.811 14.2866 216.811 14.2866C218.311 14.2866 219.911 14.7866 221.611 15.8866C222.911 16.5866 223.011 18.2866 221.911 19.1866Z" fill="white"/>
<path d="M64.9107 18.9867C62.5107 14.8867 58.3107 12.4867 53.1107 12.1867C52.2107 9.58672 50.5107 7.58672 48.2107 6.28672C45.7107 4.88672 42.8107 4.58672 40.0107 5.28672C37.6107 2.58672 34.4107 0.886722 30.6107 0.286722C26.8107 -0.413278 22.7107 0.186722 19.0107 1.88672C12.0107 4.98672 8.11068 11.1867 8.61068 17.9867C2.41068 19.8867 -0.189322 25.1867 0.0106781 30.0867C0.310678 35.4867 4.11068 41.1867 10.8107 41.5867H18.4107H27.4107C31.0107 41.5867 32.3107 40.8867 33.8107 39.4867C35.4107 38.0867 36.1107 36.3867 36.1107 34.4867C36.1107 32.8867 35.6107 31.4867 34.5107 30.2867C33.4107 29.1867 31.7107 28.0867 29.2107 27.0867C26.7107 26.0867 25.5107 25.0867 25.5107 24.0867C25.5107 22.6867 26.5107 21.9867 28.4107 21.9867C29.2107 21.9867 29.9107 22.1867 30.5107 22.4867C30.8107 22.5867 31.1107 22.7867 31.4107 22.9867C32.2107 23.4867 33.2107 23.3867 33.9107 22.7867C34.9107 21.8867 34.8107 20.1867 33.7107 19.4867C31.9107 18.3867 30.3107 17.7867 28.7107 17.7867C26.6107 17.7867 24.8107 18.3867 23.4107 19.5867C22.1107 20.7867 21.2107 22.4867 21.2107 24.2867C21.2107 25.7867 21.7107 27.0867 22.7107 28.1867C23.7107 29.1867 25.5107 30.1867 28.1107 31.2867C30.7107 32.2867 32.0107 33.3867 32.0107 34.6867C32.0107 35.3867 31.6107 35.9867 30.9107 36.5867C30.2107 37.0867 29.3107 37.3867 28.3107 37.3867H27.8107H11.0107C6.91068 37.0867 4.51068 33.4867 4.31068 29.9867C4.11068 26.6867 5.91068 22.7867 11.3107 21.8867C12.5107 21.6867 13.3107 20.4867 13.0107 19.2867C11.6107 12.5867 16.1107 7.98672 20.7107 5.88672C26.0107 3.48672 33.2107 3.58672 37.4107 9.18672C38.0107 9.98672 39.0107 10.1867 39.9107 9.88672C41.9107 9.08672 44.2107 9.28672 46.0107 10.1867C47.7107 11.0867 48.8107 12.7867 49.2107 14.9867C49.4107 15.9867 50.3107 16.6867 51.3107 16.5867C57.0107 16.4867 59.7107 19.0867 61.1107 21.2867C63.0107 24.5867 63.0107 28.9867 61.1107 32.4867C59.3107 35.6867 56.2107 37.3867 52.3107 37.3867H42.8107C41.7107 37.3867 40.6107 38.1867 40.5107 39.2867C40.4107 40.5867 41.4107 41.6867 42.6107 41.6867H52.2107C57.6107 41.6867 62.2107 39.0867 64.8107 34.5867C67.7107 29.6867 67.7107 23.5867 64.9107 18.9867Z" fill="white"/>
</svg>
