<svg width="60" height="60" viewBox="0 0 60 60" fill="none" xmlns="http://www.w3.org/2000/svg">
<path d="M45 11.8286V47.1724C45.0006 47.4126 44.9547 47.6506 44.865 47.8727C44.7754 48.0947 44.6437 48.2965 44.4775 48.4664C44.3113 48.6363 44.1139 48.7709 43.8966 48.8626C43.6794 48.9542 43.4465 49.0011 43.2115 49.0005H39.0384C38.7911 49.0003 38.5465 48.9477 38.3201 48.846C38.0937 48.7443 37.8904 48.5957 37.723 48.4095C37.5556 48.2234 37.4278 48.0038 37.3477 47.7647C37.2676 47.5255 37.2368 47.2719 37.2574 47.02L38.3752 32.9206C26.713 23.5972 37.0637 10.0005 43.2115 10.0005C43.6858 10.0005 44.1407 10.1931 44.4762 10.5359C44.8116 10.8788 45 11.3438 45 11.8286Z" fill="#5DC2EF"/>
<path d="M29.4925 11.1579C29.5522 11.5159 30.6923 18.3562 30.6923 20.9689C30.6923 24.9526 28.6207 27.7939 25.5579 28.9364L26.5192 47.073C26.5318 47.3211 26.4948 47.5692 26.4106 47.8023C26.3264 48.0353 26.1967 48.2485 26.0295 48.4287C25.8622 48.609 25.6608 48.7526 25.4375 48.8508C25.2143 48.949 24.9738 48.9998 24.7308 49.0001H19.9615C19.7185 48.9998 19.478 48.949 19.2548 48.8508C19.0315 48.7526 18.8301 48.609 18.6629 48.4287C18.4956 48.2485 18.3659 48.0353 18.2817 47.8023C18.1975 47.5692 18.1605 47.3211 18.1731 47.073L19.1344 28.9364C16.0642 27.7939 14 24.945 14 20.9689C14 18.3485 15.1401 11.5159 15.1998 11.1579C15.4382 9.61163 18.5755 9.58878 18.7692 11.2417V21.9972C18.8661 22.2562 19.8945 22.2409 19.9615 21.9972C20.0659 20.07 20.5502 11.3941 20.5577 11.196C20.8036 9.61163 23.8887 9.61163 24.1272 11.196C24.1421 11.4017 24.619 20.07 24.7233 21.9972C24.7904 22.2409 25.8262 22.2562 25.9156 21.9972V11.2417C26.1094 9.5964 29.2541 9.61163 29.4925 11.1579V11.1579Z" fill="#2B2B6F"/>
</svg>
