<svg width="60" height="60" viewBox="0 0 60 60" fill="none" xmlns="http://www.w3.org/2000/svg">
<path d="M51 25.9688V18.6562C51 17.6866 50.6225 16.7566 49.9505 16.0709C49.2785 15.3852 48.367 15 47.4167 15H11.5833C10.633 15 9.72154 15.3852 9.04953 16.0709C8.37753 16.7566 8 17.6866 8 18.6562V25.9688C8.95036 25.9688 9.86179 26.354 10.5338 27.0396C11.2058 27.7253 11.5833 28.6553 11.5833 29.625C11.5833 30.5947 11.2058 31.5247 10.5338 32.2104C9.86179 32.896 8.95036 33.2812 8 33.2812V40.5938C8 41.5634 8.37753 42.4934 9.04953 43.1791C9.72154 43.8648 10.633 44.25 11.5833 44.25H47.4167C48.367 44.25 49.2785 43.8648 49.9505 43.1791C50.6225 42.4934 51 41.5634 51 40.5938V33.2812C50.0496 33.2812 49.1382 32.896 48.4662 32.2104C47.7942 31.5247 47.4167 30.5947 47.4167 29.625C47.4167 28.6553 47.7942 27.7253 48.4662 27.0396C49.1382 26.354 50.0496 25.9688 51 25.9688ZM43.8333 39.375H15.1667V19.875H43.8333V39.375Z" fill="#5DC2EF"/>
<path d="M43.8337 19.875V39.375H15.167V19.875H43.8337Z" fill="#2B2B6F"/>
</svg>
