<svg width="60" height="60" viewBox="0 0 60 60" fill="none" xmlns="http://www.w3.org/2000/svg">
<path d="M6.67808 17.3507C6.38781 17.4963 6.16707 17.75 6.06384 18.0567C5.96061 18.3634 5.98325 18.6982 6.12683 18.9884L10.5085 27.7101C10.6549 27.9988 10.9099 28.2185 11.2182 28.3212C11.5264 28.4239 11.8629 28.4013 12.1546 28.2585L13.4807 27.6126L7.99725 16.7032L6.67808 17.3507ZM41.8203 11.1846C41.4975 11.538 41.1572 11.8751 40.8005 12.1946C38.0373 14.6694 34.3792 16.0329 30.4997 16.0329C26.6203 16.0329 22.9652 14.6694 20.2013 12.1946C19.8446 11.8751 19.5042 11.538 19.1815 11.1846L10.1923 15.6178L15.6811 26.5408L16.4888 26.1485C16.6756 26.0581 16.8825 26.0164 17.09 26.0274C17.2974 26.0384 17.4987 26.1018 17.6748 26.2115C17.8509 26.3212 17.9961 26.4736 18.0966 26.6545C18.1972 26.8354 18.2499 27.0387 18.2497 27.2454V46.5626C18.2497 47.2091 18.5079 47.8291 18.9673 48.2862C19.4268 48.7433 20.05 49.0001 20.6997 49.0001H40.2997C40.9495 49.0001 41.5727 48.7433 42.0321 48.2862C42.4916 47.8291 42.7497 47.2091 42.7497 46.5626V27.2378C42.7496 27.0311 42.8023 26.8277 42.9028 26.6469C43.0034 26.466 43.1486 26.3135 43.3247 26.2038C43.5008 26.0942 43.702 26.0308 43.9095 26.0198C44.117 26.0088 44.3238 26.0505 44.5107 26.1409L45.3199 26.5355L50.8033 15.614L41.8203 11.1846ZM54.3237 17.3545L52.9976 16.7002L47.5158 27.6072L48.8357 28.2509H48.8403C49.1312 28.3948 49.4676 28.4179 49.7756 28.315C50.0836 28.2122 50.3379 27.9918 50.4826 27.7024L54.8681 18.9884C54.9406 18.8454 54.984 18.6895 54.9959 18.5298C55.0078 18.37 54.988 18.2095 54.9375 18.0574C54.887 17.9053 54.8069 17.7646 54.7017 17.6433C54.5965 17.5221 54.4683 17.4226 54.3245 17.3507L54.3237 17.3545Z" fill="#5DC2EF"/>
<path d="M30.4996 13.5953C26.5267 13.5953 23.1197 12.1176 21.5808 10L19.1813 11.1845C19.5041 11.5379 19.8444 11.875 20.2011 12.1945C22.965 14.6693 26.6232 16.0328 30.4996 16.0328C34.3759 16.0328 38.0356 14.6693 40.7995 12.1945C41.1562 11.875 41.4966 11.5379 41.8193 11.1845L39.4199 10C37.8809 12.1176 34.4739 13.5953 30.4996 13.5953ZM7.99707 16.7031L13.4805 27.6125L15.6809 26.5407L10.1921 15.6177L7.99707 16.7031ZM50.8032 15.6139L45.3152 26.5354L47.5156 27.6071L52.9982 16.6963L50.8032 15.6139Z" fill="#2B2B6F"/>
</svg>
