<svg width="60" height="60" viewBox="0 0 60 60" fill="none" xmlns="http://www.w3.org/2000/svg">
<path d="M26.1277 13.4774C25.6153 13.0972 24.9759 12.9403 24.3501 13.0411C23.7243 13.142 23.1634 13.4924 22.7908 14.0152L14.8193 25.1987H20.7274L26.6548 16.8823C27.0274 16.3594 27.1812 15.707 27.0824 15.0685C26.9835 14.4299 26.6401 13.8576 26.1277 13.4774ZM36.2103 14.0152C36.0266 13.7543 35.7942 13.533 35.5263 13.3641C35.2585 13.1952 34.9606 13.082 34.6497 13.0309C34.3389 12.9799 34.0212 12.9921 33.715 13.0668C33.4087 13.1415 33.12 13.2772 32.8653 13.4661C32.6107 13.6551 32.3952 13.8935 32.2312 14.1678C32.0671 14.442 31.9579 14.7466 31.9096 15.0641C31.8614 15.3816 31.8752 15.7056 31.9501 16.0177C32.025 16.3297 32.1597 16.6235 32.3463 16.8823L38.2737 25.1987H44.1818L36.2103 14.0152Z" fill="#5DC2EF"/>
<path d="M49.2083 25.1987H9.79167C9.31649 25.1987 8.86077 25.3913 8.52477 25.7342C8.18876 26.077 8 26.542 8 27.0269V28.2456C8 28.7305 8.18876 29.1954 8.52477 29.5383C8.86077 29.8811 9.31649 30.0737 9.79167 30.0737H10.3889L12.3381 43.9972C12.4601 44.8685 12.886 45.6656 13.5377 46.2422C14.1894 46.8188 15.023 47.1363 15.8856 47.1362H43.1144C43.977 47.1363 44.8106 46.8188 45.4623 46.2422C46.114 45.6656 46.5399 44.8685 46.6619 43.9972L48.6111 30.0737H49.2083C49.6835 30.0737 50.1392 29.8811 50.4752 29.5383C50.8112 29.1954 51 28.7305 51 28.2456V27.0269C51 26.542 50.8112 26.077 50.4752 25.7342C50.1392 25.3913 49.6835 25.1987 49.2083 25.1987ZM22.9306 40.4331C22.9306 40.918 22.7418 41.3829 22.4058 41.7258C22.0698 42.0686 21.6141 42.2612 21.1389 42.2612C20.6637 42.2612 20.208 42.0686 19.872 41.7258C19.536 41.3829 19.3472 40.918 19.3472 40.4331V31.9019C19.3472 31.417 19.536 30.952 19.872 30.6092C20.208 30.2663 20.6637 30.0737 21.1389 30.0737C21.6141 30.0737 22.0698 30.2663 22.4058 30.6092C22.7418 30.952 22.9306 31.417 22.9306 31.9019V40.4331ZM31.2917 40.4331C31.2917 40.918 31.1029 41.3829 30.7669 41.7258C30.4309 42.0686 29.9752 42.2612 29.5 42.2612C29.0248 42.2612 28.5691 42.0686 28.2331 41.7258C27.8971 41.3829 27.7083 40.918 27.7083 40.4331V31.9019C27.7083 31.417 27.8971 30.952 28.2331 30.6092C28.5691 30.2663 29.0248 30.0737 29.5 30.0737C29.9752 30.0737 30.4309 30.2663 30.7669 30.6092C31.1029 30.952 31.2917 31.417 31.2917 31.9019V40.4331ZM39.6528 40.4331C39.6528 40.918 39.464 41.3829 39.128 41.7258C38.792 42.0686 38.3363 42.2612 37.8611 42.2612C37.3859 42.2612 36.9302 42.0686 36.5942 41.7258C36.2582 41.3829 36.0694 40.918 36.0694 40.4331V31.9019C36.0694 31.417 36.2582 30.952 36.5942 30.6092C36.9302 30.2663 37.3859 30.0737 37.8611 30.0737C38.3363 30.0737 38.792 30.2663 39.128 30.6092C39.464 30.952 39.6528 31.417 39.6528 31.9019V40.4331Z" fill="#2B2B6F"/>
</svg>
