<svg width="60" height="60" viewBox="0 0 60 60" fill="none" xmlns="http://www.w3.org/2000/svg">
<path d="M34.96 19.875C35.7094 19.8749 36.4418 20.0938 37.0624 20.5035C37.6831 20.9131 38.1636 21.4946 38.442 22.1731L39.999 25.9688H19.999L21.5561 22.1731C21.8345 21.4946 22.315 20.9131 22.9356 20.5035C23.5563 20.0938 24.2886 19.8749 25.0381 19.875H34.96ZM16.249 39.375C15.5479 39.3757 14.8546 39.2323 14.2142 38.954C13.5738 38.6758 13.0008 38.269 12.5326 37.7602C12.5103 37.8911 12.4991 38.0235 12.499 38.1562V41.8125C12.499 42.459 12.7624 43.079 13.2313 43.5361C13.7001 43.9932 14.336 44.25 14.999 44.25H17.499C18.1621 44.25 18.7979 43.9932 19.2668 43.5361C19.7356 43.079 19.999 42.459 19.999 41.8125V39.375H16.249ZM43.749 39.375H39.999V41.8125C39.999 42.459 40.2624 43.079 40.7313 43.5361C41.2001 43.9932 41.836 44.25 42.499 44.25H44.999C45.6621 44.25 46.298 43.9932 46.7668 43.5361C47.2356 43.079 47.499 42.459 47.499 41.8125V38.1562C47.499 38.0235 47.4877 37.8911 47.4654 37.7602C46.9972 38.269 46.4242 38.6758 45.7839 38.954C45.1435 39.2323 44.4501 39.3757 43.749 39.375Z" fill="#5DC2EF"/>
<path d="M49.0616 23.5313H44.3834L43.0834 20.3625C42.4391 18.7762 41.3193 17.416 39.8702 16.4594C38.4211 15.5028 36.71 14.9943 34.96 15H25.0381C23.288 14.9944 21.5767 15.503 20.1274 16.4595C18.678 17.4161 17.558 18.7762 16.9131 20.3625L15.6139 23.5313H10.9366C10.7942 23.5314 10.6537 23.5632 10.5258 23.6242C10.3979 23.6851 10.2859 23.7737 10.1983 23.8832C10.1107 23.9926 10.0499 24.1201 10.0204 24.2559C9.99084 24.3918 9.99345 24.5323 10.028 24.667L10.4967 26.4951C10.5474 26.6928 10.6643 26.8682 10.8289 26.9937C10.9935 27.1191 11.1964 27.1873 11.4053 27.1875H12.9741C12.4344 27.6407 12.001 28.2017 11.7034 28.8326C11.4058 29.4635 11.2508 30.1494 11.2491 30.8438V34.5C11.2491 35.793 11.7759 37.033 12.7135 37.9472C13.6512 38.8614 14.923 39.375 16.2491 39.375H43.7491C45.0752 39.375 46.3469 38.8614 47.2846 37.9472C48.2223 37.033 48.7491 35.793 48.7491 34.5V30.8438C48.7473 30.1495 48.5924 29.4636 48.2949 28.8328C47.9974 28.202 47.5643 27.6409 47.0249 27.1875H48.5928C48.8019 27.1875 49.0049 27.1194 49.1697 26.9939C49.3345 26.8684 49.4515 26.6929 49.5022 26.4951L49.9709 24.667C50.0055 24.5323 50.0081 24.3916 49.9785 24.2557C49.949 24.1199 49.8881 23.9924 49.8004 23.8829C49.7127 23.7734 49.6006 23.6848 49.4726 23.6239C49.3446 23.563 49.204 23.5313 49.0616 23.5313ZM21.5561 22.1732C21.8345 21.4947 22.315 20.9131 22.9357 20.5035C23.5563 20.0939 24.2887 19.875 25.0381 19.875H34.96C35.7095 19.875 36.4418 20.0939 37.0625 20.5035C37.6831 20.9131 38.1636 21.4947 38.442 22.1732L39.9991 25.9688H19.9991L21.5561 22.1732ZM17.4991 29.625C18.9991 29.625 21.2491 31.8119 21.2491 33.2699C21.2491 34.7278 18.9991 34.4848 17.4991 34.4848C15.9991 34.4848 14.9991 33.5098 14.9991 32.0549C14.9991 30.6 15.9991 29.625 17.4991 29.625ZM38.7491 33.2699C38.7491 31.8119 40.9991 29.625 42.4991 29.625C43.9991 29.625 44.9991 30.597 44.9991 32.0549C44.9991 33.5129 43.9991 34.4848 42.4991 34.4848C40.9991 34.4848 38.7491 34.7286 38.7491 33.2699Z" fill="#2B2B6F"/>
</svg>
