<svg width="60" height="60" viewBox="0 0 60 60" fill="none" xmlns="http://www.w3.org/2000/svg">
<path d="M16.6127 36.2254H13.9877C13.7788 36.2254 13.5785 36.3088 13.4308 36.4573C13.2832 36.6058 13.2002 36.8071 13.2002 37.0171V39.6564C13.2002 39.8664 13.2832 40.0678 13.4308 40.2163C13.5785 40.3648 13.7788 40.4482 13.9877 40.4482H16.6127C16.8216 40.4482 17.0219 40.3648 17.1695 40.2163C17.3172 40.0678 17.4002 39.8664 17.4002 39.6564V37.0171C17.4002 36.8071 17.3172 36.6058 17.1695 36.4573C17.0219 36.3088 16.8216 36.2254 16.6127 36.2254ZM16.6127 29.8911H13.9877C13.7788 29.8911 13.5785 29.9745 13.4308 30.123C13.2832 30.2715 13.2002 30.4729 13.2002 30.6829V33.3222C13.2002 33.5322 13.2832 33.7336 13.4308 33.882C13.5785 34.0305 13.7788 34.1139 13.9877 34.1139H16.6127C16.8216 34.1139 17.0219 34.0305 17.1695 33.882C17.3172 33.7336 17.4002 33.5322 17.4002 33.3222V30.6829C17.4002 30.4729 17.3172 30.2715 17.1695 30.123C17.0219 29.9745 16.8216 29.8911 16.6127 29.8911ZM16.6127 23.5569H13.9877C13.7788 23.5569 13.5785 23.6403 13.4308 23.7888C13.2832 23.9373 13.2002 24.1387 13.2002 24.3487V26.9879C13.2002 27.1979 13.2832 27.3993 13.4308 27.5478C13.5785 27.6963 13.7788 27.7797 13.9877 27.7797H16.6127C16.8216 27.7797 17.0219 27.6963 17.1695 27.5478C17.3172 27.3993 17.4002 27.1979 17.4002 26.9879V24.3487C17.4002 24.1387 17.3172 23.9373 17.1695 23.7888C17.0219 23.6403 16.8216 23.5569 16.6127 23.5569ZM25.0127 36.2254H22.3877C22.1788 36.2254 21.9785 36.3088 21.8308 36.4573C21.6832 36.6058 21.6002 36.8071 21.6002 37.0171V39.6564C21.6002 39.8664 21.6832 40.0678 21.8308 40.2163C21.9785 40.3648 22.1788 40.4482 22.3877 40.4482H25.0127C25.2216 40.4482 25.4219 40.3648 25.5695 40.2163C25.7172 40.0678 25.8002 39.8664 25.8002 39.6564V37.0171C25.8002 36.8071 25.7172 36.6058 25.5695 36.4573C25.4219 36.3088 25.2216 36.2254 25.0127 36.2254ZM25.0127 29.8911H22.3877C22.1788 29.8911 21.9785 29.9745 21.8308 30.123C21.6832 30.2715 21.6002 30.4729 21.6002 30.6829V33.3222C21.6002 33.5322 21.6832 33.7336 21.8308 33.882C21.9785 34.0305 22.1788 34.1139 22.3877 34.1139H25.0127C25.2216 34.1139 25.4219 34.0305 25.5695 33.882C25.7172 33.7336 25.8002 33.5322 25.8002 33.3222V30.6829C25.8002 30.4729 25.7172 30.2715 25.5695 30.123C25.4219 29.9745 25.2216 29.8911 25.0127 29.8911ZM25.0127 23.5569H22.3877C22.1788 23.5569 21.9785 23.6403 21.8308 23.7888C21.6832 23.9373 21.6002 24.1387 21.6002 24.3487V26.9879C21.6002 27.1979 21.6832 27.3993 21.8308 27.5478C21.9785 27.6963 22.1788 27.7797 22.3877 27.7797H25.0127C25.2216 27.7797 25.4219 27.6963 25.5695 27.5478C25.7172 27.3993 25.8002 27.1979 25.8002 26.9879V24.3487C25.8002 24.1387 25.7172 23.9373 25.5695 23.7888C25.4219 23.6403 25.2216 23.5569 25.0127 23.5569ZM46.0127 36.2254H43.3877C43.1788 36.2254 42.9785 36.3088 42.8308 36.4573C42.6832 36.6058 42.6002 36.8071 42.6002 37.0171V39.6564C42.6002 39.8664 42.6832 40.0678 42.8308 40.2163C42.9785 40.3648 43.1788 40.4482 43.3877 40.4482H46.0127C46.2215 40.4482 46.4219 40.3648 46.5695 40.2163C46.7172 40.0678 46.8002 39.8664 46.8002 39.6564V37.0171C46.8002 36.8071 46.7172 36.6058 46.5695 36.4573C46.4219 36.3088 46.2215 36.2254 46.0127 36.2254ZM46.0127 29.8911H43.3877C43.1788 29.8911 42.9785 29.9745 42.8308 30.123C42.6832 30.2715 42.6002 30.4729 42.6002 30.6829V33.3222C42.6002 33.5322 42.6832 33.7336 42.8308 33.882C42.9785 34.0305 43.1788 34.1139 43.3877 34.1139H46.0127C46.2215 34.1139 46.4219 34.0305 46.5695 33.882C46.7172 33.7336 46.8002 33.5322 46.8002 33.3222V30.6829C46.8002 30.4729 46.7172 30.2715 46.5695 30.123C46.4219 29.9745 46.2215 29.8911 46.0127 29.8911Z" fill="#2B2B6F"/>
<path d="M49.425 25.6685H40.5V14.5836C40.5 14.1636 40.3341 13.7608 40.0387 13.4638C39.7433 13.1668 39.3427 13 38.925 13H29.475C29.0573 13 28.6567 13.1668 28.3613 13.4638C28.0659 13.7608 27.9 14.1636 27.9 14.5836V19.3342H23.7V14.0557C23.7 13.7757 23.5894 13.5072 23.3925 13.3092C23.1955 13.1112 22.9285 13 22.65 13H21.6C21.3215 13 21.0545 13.1112 20.8575 13.3092C20.6606 13.5072 20.55 13.7757 20.55 14.0557V19.3342H16.35V14.0557C16.35 13.7757 16.2394 13.5072 16.0425 13.3092C15.8455 13.1112 15.5785 13 15.3 13H14.25C13.9715 13 13.7045 13.1112 13.5075 13.3092C13.3106 13.5072 13.2 13.7757 13.2 14.0557V19.3342H10.575C10.1573 19.3342 9.75668 19.5011 9.46131 19.7981C9.16594 20.095 9 20.4978 9 20.9178V44.6712C9 45.2312 9.22125 45.7682 9.61508 46.1642C10.0089 46.5602 10.543 46.7826 11.1 46.7826H48.9C49.457 46.7826 49.9911 46.5602 50.3849 46.1642C50.7788 45.7682 51 45.2312 51 44.6712V27.252C51 26.8321 50.8341 26.4293 50.5387 26.1323C50.2433 25.8353 49.8427 25.6685 49.425 25.6685ZM17.4 39.6566C17.4 39.8666 17.317 40.068 17.1693 40.2165C17.0217 40.365 16.8214 40.4484 16.6125 40.4484H13.9875C13.7786 40.4484 13.5783 40.365 13.4307 40.2165C13.283 40.068 13.2 39.8666 13.2 39.6566V37.0173C13.2 36.8073 13.283 36.6059 13.4307 36.4574C13.5783 36.309 13.7786 36.2255 13.9875 36.2255H16.6125C16.8214 36.2255 17.0217 36.309 17.1693 36.4574C17.317 36.6059 17.4 36.8073 17.4 37.0173V39.6566ZM17.4 33.3223C17.4 33.5323 17.317 33.7337 17.1693 33.8822C17.0217 34.0307 16.8214 34.1141 16.6125 34.1141H13.9875C13.7786 34.1141 13.5783 34.0307 13.4307 33.8822C13.283 33.7337 13.2 33.5323 13.2 33.3223V30.6831C13.2 30.4731 13.283 30.2717 13.4307 30.1232C13.5783 29.9747 13.7786 29.8913 13.9875 29.8913H16.6125C16.8214 29.8913 17.0217 29.9747 17.1693 30.1232C17.317 30.2717 17.4 30.4731 17.4 30.6831V33.3223ZM17.4 26.9881C17.4 27.1981 17.317 27.3995 17.1693 27.548C17.0217 27.6965 16.8214 27.7799 16.6125 27.7799H13.9875C13.7786 27.7799 13.5783 27.6965 13.4307 27.548C13.283 27.3995 13.2 27.1981 13.2 26.9881V24.3488C13.2 24.1389 13.283 23.9375 13.4307 23.789C13.5783 23.6405 13.7786 23.5571 13.9875 23.5571H16.6125C16.8214 23.5571 17.0217 23.6405 17.1693 23.789C17.317 23.9375 17.4 24.1389 17.4 24.3488V26.9881ZM25.8 39.6566C25.8 39.8666 25.717 40.068 25.5693 40.2165C25.4217 40.365 25.2214 40.4484 25.0125 40.4484H22.3875C22.1786 40.4484 21.9783 40.365 21.8307 40.2165C21.683 40.068 21.6 39.8666 21.6 39.6566V37.0173C21.6 36.8073 21.683 36.6059 21.8307 36.4574C21.9783 36.309 22.1786 36.2255 22.3875 36.2255H25.0125C25.2214 36.2255 25.4217 36.309 25.5693 36.4574C25.717 36.6059 25.8 36.8073 25.8 37.0173V39.6566ZM25.8 33.3223C25.8 33.5323 25.717 33.7337 25.5693 33.8822C25.4217 34.0307 25.2214 34.1141 25.0125 34.1141H22.3875C22.1786 34.1141 21.9783 34.0307 21.8307 33.8822C21.683 33.7337 21.6 33.5323 21.6 33.3223V30.6831C21.6 30.4731 21.683 30.2717 21.8307 30.1232C21.9783 29.9747 22.1786 29.8913 22.3875 29.8913H25.0125C25.2214 29.8913 25.4217 29.9747 25.5693 30.1232C25.717 30.2717 25.8 30.4731 25.8 30.6831V33.3223ZM25.8 26.9881C25.8 27.1981 25.717 27.3995 25.5693 27.548C25.4217 27.6965 25.2214 27.7799 25.0125 27.7799H22.3875C22.1786 27.7799 21.9783 27.6965 21.8307 27.548C21.683 27.3995 21.6 27.1981 21.6 26.9881V24.3488C21.6 24.1389 21.683 23.9375 21.8307 23.789C21.9783 23.6405 22.1786 23.5571 22.3875 23.5571H25.0125C25.2214 23.5571 25.4217 23.6405 25.5693 23.789C25.717 23.9375 25.8 24.1389 25.8 24.3488V26.9881ZM36.3 33.3223C36.3 33.5323 36.217 33.7337 36.0693 33.8822C35.9217 34.0307 35.7214 34.1141 35.5125 34.1141H32.8875C32.6786 34.1141 32.4783 34.0307 32.3307 33.8822C32.183 33.7337 32.1 33.5323 32.1 33.3223V30.6831C32.1 30.4731 32.183 30.2717 32.3307 30.1232C32.4783 29.9747 32.6786 29.8913 32.8875 29.8913H35.5125C35.7214 29.8913 35.9217 29.9747 36.0693 30.1232C36.217 30.2717 36.3 30.4731 36.3 30.6831V33.3223ZM36.3 26.9881C36.3 27.1981 36.217 27.3995 36.0693 27.548C35.9217 27.6965 35.7214 27.7799 35.5125 27.7799H32.8875C32.6786 27.7799 32.4783 27.6965 32.3307 27.548C32.183 27.3995 32.1 27.1981 32.1 26.9881V24.3488C32.1 24.1389 32.183 23.9375 32.3307 23.789C32.4783 23.6405 32.6786 23.5571 32.8875 23.5571H35.5125C35.7214 23.5571 35.9217 23.6405 36.0693 23.789C36.217 23.9375 36.3 24.1389 36.3 24.3488V26.9881ZM36.3 20.6539C36.3 20.8639 36.217 21.0653 36.0693 21.2137C35.9217 21.3622 35.7214 21.4457 35.5125 21.4457H32.8875C32.6786 21.4457 32.4783 21.3622 32.3307 21.2137C32.183 21.0653 32.1 20.8639 32.1 20.6539V18.0146C32.1 17.8046 32.183 17.6032 32.3307 17.4547C32.4783 17.3062 32.6786 17.2228 32.8875 17.2228H35.5125C35.7214 17.2228 35.9217 17.3062 36.0693 17.4547C36.217 17.6032 36.3 17.8046 36.3 18.0146V20.6539ZM46.8 39.6566C46.8 39.8666 46.717 40.068 46.5693 40.2165C46.4217 40.365 46.2214 40.4484 46.0125 40.4484H43.3875C43.1786 40.4484 42.9783 40.365 42.8307 40.2165C42.683 40.068 42.6 39.8666 42.6 39.6566V37.0173C42.6 36.8073 42.683 36.6059 42.8307 36.4574C42.9783 36.309 43.1786 36.2255 43.3875 36.2255H46.0125C46.2214 36.2255 46.4217 36.309 46.5693 36.4574C46.717 36.6059 46.8 36.8073 46.8 37.0173V39.6566ZM46.8 33.3223C46.8 33.5323 46.717 33.7337 46.5693 33.8822C46.4217 34.0307 46.2214 34.1141 46.0125 34.1141H43.3875C43.1786 34.1141 42.9783 34.0307 42.8307 33.8822C42.683 33.7337 42.6 33.5323 42.6 33.3223V30.6831C42.6 30.4731 42.683 30.2717 42.8307 30.1232C42.9783 29.9747 43.1786 29.8913 43.3875 29.8913H46.0125C46.2214 29.8913 46.4217 29.9747 46.5693 30.1232C46.717 30.2717 46.8 30.4731 46.8 30.6831V33.3223Z" fill="#5DC2EF"/>
</svg>
