<?xml version="1.0" standalone="no"?>
<!DOCTYPE svg PUBLIC "-//W3C//DTD SVG 20010904//EN"
 "http://www.w3.org/TR/2001/REC-SVG-20010904/DTD/svg10.dtd">
<svg version="1.0" xmlns="http://www.w3.org/2000/svg"
 width="1072.000000pt" height="1072.000000pt" viewBox="0 0 1072.000000 1072.000000"
 preserveAspectRatio="xMidYMid meet">
<metadata>
Created by potrace 1.14, written by Peter Selinger 2001-2017
</metadata>
<g transform="translate(0.000000,1072.000000) scale(0.100000,-0.100000)"
fill="#000000" stroke="none">
<path d="M4158 8715 c-2 -2 -30 -6 -63 -9 -79 -9 -127 -15 -200 -27 -56 -8
-78 -12 -130 -23 -66 -13 -209 -50 -265 -67 -36 -11 -72 -22 -80 -24 -29 -7
-156 -53 -220 -79 -36 -15 -78 -33 -94 -39 -85 -34 -419 -207 -474 -245 -9 -7
-57 -39 -106 -72 -103 -70 -231 -170 -298 -232 -25 -23 -61 -57 -80 -74 -47
-44 -158 -162 -193 -207 -16 -21 -38 -48 -48 -60 -38 -44 -135 -184 -173 -247
-21 -36 -43 -68 -49 -72 -5 -4 -7 -8 -3 -8 4 0 -5 -21 -20 -47 -82 -141 -205
-464 -228 -597 -2 -17 -7 -38 -9 -46 -5 -18 -16 -76 -20 -107 -2 -13 -6 -42
-10 -65 -14 -80 -16 -113 -20 -315 -2 -111 -6 -207 -10 -213 -3 -5 -12 -10
-20 -10 -8 0 -26 -5 -42 -12 -15 -6 -32 -12 -38 -13 -46 -12 -250 -107 -335
-157 -62 -37 -145 -92 -158 -105 -7 -7 -16 -13 -20 -13 -4 0 -21 -13 -39 -28
-17 -15 -55 -47 -84 -72 -63 -54 -125 -118 -208 -217 -29 -34 -136 -186 -136
-193 0 -3 -9 -18 -21 -35 -82 -117 -211 -470 -230 -630 -4 -27 -8 -53 -10 -56
-26 -44 -25 -496 1 -614 3 -11 7 -31 9 -45 17 -108 67 -275 122 -413 128 -317
363 -630 608 -807 26 -19 56 -43 67 -52 10 -10 23 -18 28 -18 4 0 19 -9 33
-19 34 -27 216 -121 233 -121 8 0 15 -5 15 -10 0 -6 3 -9 8 -8 4 0 14 -2 22
-5 29 -12 175 -59 195 -63 11 -2 47 -10 80 -18 70 -16 124 -25 215 -33 89 -8
2856 -8 2950 1 160 14 184 17 270 36 49 11 113 29 142 40 61 24 161 71 168 79
3 3 33 25 66 48 127 87 269 228 351 348 71 106 131 247 147 349 3 20 9 53 13
74 8 43 8 249 0 307 -21 156 -82 307 -174 434 -38 51 -224 231 -239 231 -3 0
-22 13 -42 29 -119 95 -375 228 -690 360 -131 55 -257 119 -309 157 -17 13
-34 24 -37 24 -8 0 -62 47 -108 95 -62 64 -86 122 -82 197 4 79 4 82 33 141
25 52 74 97 136 126 37 17 161 49 195 49 8 0 42 1 75 2 33 1 62 1 65 0 3 -1
24 -3 47 -5 67 -6 148 -29 223 -63 19 -9 37 -17 40 -18 3 -1 15 -5 28 -9 12
-4 22 -11 22 -16 0 -5 5 -9 11 -9 6 0 29 -13 52 -28 199 -134 463 -29 515 205
21 94 -18 251 -72 289 -11 8 -16 14 -11 14 13 0 -114 84 -154 101 -17 8 -31
17 -31 21 0 5 -4 8 -10 8 -5 0 -44 17 -87 38 -78 38 -215 93 -243 97 -8 1 -22
5 -30 8 -16 6 -101 23 -165 33 -55 8 -229 8 -300 0 -139 -17 -353 -71 -380
-97 -5 -5 -17 -9 -27 -9 -10 0 -18 -4 -18 -10 0 -5 -7 -10 -15 -10 -18 0 -135
-71 -195 -118 -59 -47 -190 -183 -190 -197 0 -4 -11 -20 -23 -35 -39 -46 -129
-230 -143 -292 -1 -5 -2 -9 -4 -10 -14 -18 -37 -202 -35 -284 3 -87 28 -231
46 -266 5 -10 7 -18 4 -18 -9 0 66 -143 112 -212 100 -150 274 -276 613 -444
132 -65 422 -194 437 -194 15 0 209 -104 267 -142 69 -47 156 -123 156 -137 0
-5 6 -11 13 -14 27 -10 83 -152 79 -202 -7 -103 -38 -168 -119 -252 -94 -99
-217 -156 -383 -179 -60 -9 -2840 -8 -2911 0 -31 4 -67 9 -80 12 -13 3 -35 7
-49 10 -42 8 -172 55 -225 82 -68 34 -175 103 -175 114 0 4 -5 8 -11 8 -18 0
-152 131 -187 182 -9 13 -19 25 -22 28 -17 13 -91 133 -126 205 -64 127 -114
285 -130 405 -3 30 -8 66 -10 80 -7 39 -6 231 1 275 3 22 11 65 17 95 7 30 11
58 10 62 -4 17 63 189 104 268 106 202 263 360 479 479 50 28 110 57 135 66
25 8 54 19 65 25 30 14 206 62 240 65 43 5 102 19 114 29 8 6 15 9 15 7 2 -8
73 30 92 48 31 29 80 85 82 94 1 4 8 20 16 35 25 49 35 149 20 214 -3 13 -7
33 -9 45 -2 11 -6 29 -9 40 -26 86 -27 518 -1 596 2 7 7 30 10 52 7 46 37 155
66 235 22 60 80 192 89 200 3 3 14 23 26 45 42 81 40 78 140 214 82 110 217
252 323 342 36 30 72 60 80 67 123 105 416 272 626 357 104 42 314 108 375
119 14 3 25 5 25 6 0 2 13 5 95 20 85 16 137 24 260 36 83 9 357 9 435 0 33
-4 74 -9 90 -11 30 -3 131 -21 170 -30 149 -34 239 -64 393 -132 29 -13 57
-23 62 -23 6 0 10 -4 10 -10 0 -5 5 -10 11 -10 11 0 170 -93 199 -116 8 -7 44
-34 80 -61 83 -61 238 -215 321 -318 74 -93 90 -108 144 -137 98 -52 191 -53
339 -4 96 32 117 38 211 52 61 10 249 11 325 2 65 -7 201 -37 215 -47 6 -4 30
-13 55 -20 55 -16 154 -65 197 -97 17 -13 34 -24 38 -24 3 0 16 -11 29 -25 13
-14 26 -25 29 -25 9 0 82 -81 132 -145 90 -115 179 -329 209 -500 16 -97 89
-189 182 -232 50 -22 69 -25 212 -28 222 -5 332 -15 442 -41 14 -3 36 -7 50
-9 14 -2 32 -6 40 -8 315 -79 561 -217 766 -427 77 -79 184 -213 184 -230 0
-5 3 -10 8 -10 4 0 12 -10 18 -23 6 -12 26 -51 45 -87 19 -36 36 -69 38 -75 3
-10 14 -38 33 -85 5 -14 11 -32 13 -40 3 -8 12 -35 21 -60 8 -25 26 -97 39
-160 67 -323 46 -679 -56 -978 -17 -48 -31 -91 -33 -97 -21 -81 -212 -415
-238 -415 -4 0 -8 -5 -8 -10 0 -19 -109 -134 -200 -211 -247 -208 -556 -329
-910 -355 -47 -3 -456 -6 -910 -6 -779 -1 -828 -2 -880 -20 -30 -10 -67 -27
-82 -38 -15 -11 -30 -20 -33 -20 -7 0 -50 -45 -80 -85 -55 -71 -66 -203 -27
-305 23 -57 104 -160 127 -160 7 0 15 -4 17 -8 2 -4 28 -18 58 -30 l55 -23
920 4 c506 2 929 6 940 9 11 3 49 9 85 13 36 4 68 9 71 11 4 2 27 6 50 9 24 3
60 10 79 15 19 5 44 11 55 13 11 2 27 7 35 10 8 3 35 11 60 17 71 18 225 78
338 131 56 26 105 48 109 48 3 -1 9 3 12 8 3 5 42 31 86 57 135 82 260 181
387 308 136 136 144 145 226 257 171 234 287 457 376 723 27 82 63 214 72 263
2 17 7 37 9 45 2 8 7 38 11 65 3 28 8 59 10 70 18 88 26 492 11 590 -3 22 -8
63 -12 90 -6 49 -9 69 -19 111 -2 12 -7 37 -10 55 -3 19 -10 49 -15 67 -10 33
-12 40 -16 57 -1 6 -10 37 -20 70 -10 33 -18 64 -19 70 -1 5 -7 20 -14 32 -7
12 -12 27 -12 32 0 26 -122 280 -183 381 -61 102 -175 263 -223 316 -143 157
-285 285 -400 361 -11 7 -37 25 -59 39 -77 52 -330 184 -353 184 -4 0 -19 6
-34 14 -15 8 -71 28 -125 45 -54 17 -113 36 -131 42 -19 6 -44 13 -55 14 -12
2 -65 13 -117 24 -52 11 -115 22 -140 25 -25 4 -62 9 -83 12 -20 3 -65 7 -98
9 -34 2 -65 7 -69 12 -3 4 -19 40 -35 78 -67 166 -167 335 -272 460 -60 73
-164 177 -213 214 -19 14 -39 31 -45 38 -23 27 -217 147 -310 192 -142 69
-321 127 -451 146 -21 4 -52 9 -69 12 -69 12 -342 18 -410 9 -87 -12 -174 -26
-195 -31 -3 -1 -26 -5 -52 -9 l-47 -8 -88 88 c-183 185 -360 317 -589 439 -58
31 -282 131 -314 140 -3 0 -50 15 -105 33 -183 58 -333 89 -615 128 -45 6
-526 14 -532 9z"/>
</g>
</svg>
